<svg id="Calque_1" data-name="Calque 1" xmlns="http://www.w3.org/2000/svg" xmlns:xlink="http://www.w3.org/1999/xlink" viewBox="0 0 151.73078 151.76282"><defs><style>.cls-1{fill:url(#linear-gradient);}.cls-2{fill:url(#linear-gradient-2);}.cls-3{fill:url(#linear-gradient-3);}.cls-4{fill:url(#linear-gradient-4);}.cls-5{fill:url(#linear-gradient-5);}.cls-6{fill:url(#linear-gradient-6);}.cls-7{fill:url(#linear-gradient-7);}.cls-8{fill:url(#linear-gradient-8);}</style><linearGradient id="linear-gradient" x1="27.13461" y1="60.07339" x2="98.04682" y2="60.07339" gradientUnits="userSpaceOnUse"><stop offset="0" stop-color="#24387a"/><stop offset="0.28865" stop-color="#1b508e"/><stop offset="0.89568" stop-color="#058dc2"/><stop offset="0.99512" stop-color="#0198cb"/></linearGradient><linearGradient id="linear-gradient-2" x1="40.87799" y1="50.92069" x2="71.67326" y2="50.92069" gradientTransform="translate(52.48913 -24.87853) rotate(45)" xlink:href="#linear-gradient"/><linearGradient id="linear-gradient-3" x1="178.86539" y1="60.07339" x2="107.95318" y2="60.07339" xlink:href="#linear-gradient"/><linearGradient id="linear-gradient-4" x1="165.25951" y1="50.92069" x2="134.46424" y2="50.92069" gradientTransform="translate(79.89992 -91.05403) rotate(45)" xlink:href="#linear-gradient"/><linearGradient id="linear-gradient-5" x1="40.87799" y1="150.0005" x2="71.67326" y2="150.0005" gradientTransform="matrix(0.97325, 0.22975, -0.22975, 0.97325, 35.96839, -8.91681)" xlink:href="#linear-gradient"/><linearGradient id="linear-gradient-6" x1="27.13461" y1="140.92661" x2="98.04682" y2="140.92661" xlink:href="#linear-gradient"/><linearGradient id="linear-gradient-7" x1="165.25951" y1="149.91088" x2="134.46424" y2="149.91088" gradientTransform="translate(261.33144 -30.38444) rotate(76.71751)" xlink:href="#linear-gradient"/><linearGradient id="linear-gradient-8" x1="178.86539" y1="140.63198" x2="107.95318" y2="140.63198" xlink:href="#linear-gradient"/></defs><title>logo_community_gardian</title><path class="cls-1" d="M98.04682,29.58214v25.486A34.65409,34.65409,0,0,1,87.89221,79.577l-5.8082,5.806A34.65406,34.65406,0,0,1,57.58457,95.52819H32.10076a4.96212,4.96212,0,0,1-2.93337-8.9592h.00995a4.89039,4.89039,0,0,1,2.91347-.95455H53.47893a34.654,34.654,0,0,0,24.49814-10.144l0,0A34.654,34.654,0,0,0,88.133,50.96036V29.53243a4.9083,4.9083,0,0,1,.95461-2.87372A4.95841,4.95841,0,0,1,98.04682,29.58214Z" transform="translate(-27.13461 -24.61859)"/><circle class="cls-2" cx="56.2756" cy="50.92072" r="15.3976" transform="translate(-46.65825 30.0886) rotate(-45)"/><path class="cls-3" d="M107.95318,29.58214v25.486A34.65409,34.65409,0,0,0,118.10779,79.577l5.8082,5.806a34.65406,34.65406,0,0,0,24.49944,10.14526h25.48381a4.96212,4.96212,0,0,0,2.93337-8.9592h-.00995a4.89039,4.89039,0,0,0-2.91347-.95455H152.52107a34.654,34.654,0,0,1-24.49814-10.144l0,0A34.654,34.654,0,0,1,117.867,50.96036V29.53243a4.9083,4.9083,0,0,0-.95461-2.87372A4.95841,4.95841,0,0,0,107.95318,29.58214Z" transform="translate(-27.13461 -24.61859)"/><circle class="cls-4" cx="149.8619" cy="50.92072" r="15.39762" transform="translate(-19.24746 96.26411) rotate(-45)"/><circle class="cls-5" cx="56.2756" cy="150.00053" r="15.39761" transform="translate(-60.09216 -7.6765) rotate(-13.28249)"/><path class="cls-6" d="M98.04682,171.41786v-25.486a34.65409,34.65409,0,0,0-10.15461-24.50879l-5.8082-5.806a34.65406,34.65406,0,0,0-24.49944-10.14526H32.10076a4.96212,4.96212,0,0,0-2.93337,8.9592h.00995a4.89039,4.89039,0,0,0,2.91347.95455H53.47893a34.654,34.654,0,0,1,24.49814,10.144l0,0A34.654,34.654,0,0,1,88.133,150.03964v21.42793a4.9083,4.9083,0,0,0,.95461,2.87372A4.95841,4.95841,0,0,0,98.04682,171.41786Z" transform="translate(-27.13461 -24.61859)"/><circle class="cls-7" cx="149.8619" cy="149.9109" r="15.39766" transform="translate(-57.60449 236.70291) rotate(-76.71751)"/><path class="cls-8" d="M107.95318,171.12323v-25.486a34.65406,34.65406,0,0,1,10.15461-24.50879l5.8082-5.806a34.654,34.654,0,0,1,24.49944-10.14527h25.48381a4.96212,4.96212,0,0,1,2.93337,8.95921h-.00995a4.89039,4.89039,0,0,1-2.91347.95455H152.52107a34.65405,34.65405,0,0,0-24.49814,10.144l0,0A34.65406,34.65406,0,0,0,117.867,149.745v21.42793a4.90828,4.90828,0,0,1-.95461,2.87372A4.95841,4.95841,0,0,1,107.95318,171.12323Z" transform="translate(-27.13461 -24.61859)"/></svg>