<svg id="Calque_1" data-name="Calque 1" xmlns="http://www.w3.org/2000/svg" viewBox="0 0 207.30911 181.15459"><defs><style>.cls-1,.cls-2{fill:#020304;}.cls-2{stroke:#1d1d1b;stroke-miterlimit:10;}</style></defs><title>logo_community_bas_haut</title><path class="cls-1" d="M176.133,60.99445v25.486a34.65409,34.65409,0,0,1-10.15461,24.50879l-5.80819,5.806a34.65406,34.65406,0,0,1-24.49945,10.14526h-25.4838a4.96212,4.96212,0,0,1-2.93338-8.9592h.01a4.89041,4.89041,0,0,1,2.91347-.95455h21.38812a34.654,34.654,0,0,0,24.49815-10.144l0,0a34.65409,34.65409,0,0,0,10.15591-24.51009V60.94474a4.90824,4.90824,0,0,1,.9546-2.87371A4.95841,4.95841,0,0,1,176.133,60.99445Z" transform="translate(-76.54971 -56.0309)"/><circle class="cls-1" cx="134.36176" cy="82.33303" r="15.3976" transform="translate(-95.41431 63.09199) rotate(-45)"/><path class="cls-1" d="M186.03934,60.99445v25.486A34.65405,34.65405,0,0,0,196.194,110.98926l5.80819,5.806a34.654,34.654,0,0,0,24.49945,10.14526h25.4838a4.96212,4.96212,0,0,0,2.93338-8.9592h-.01a4.89039,4.89039,0,0,0-2.91347-.95455H230.60723a34.654,34.654,0,0,1-24.49815-10.144l0,0a34.654,34.654,0,0,1-10.15591-24.51009V60.94474a4.90818,4.90818,0,0,0-.95461-2.87371A4.9584,4.9584,0,0,0,186.03934,60.99445Z" transform="translate(-76.54971 -56.0309)"/><circle class="cls-1" cx="227.94806" cy="82.33303" r="15.39762" transform="translate(-68.00352 129.2675) rotate(-45)"/><circle class="cls-1" cx="134.36176" cy="181.41284" r="15.39761" transform="translate(-114.63544 -20.30803) rotate(-13.28249)"/><path class="cls-1" d="M176.133,202.83017v-25.486a34.65409,34.65409,0,0,0-10.15461-24.50879l-5.80819-5.806a34.6541,34.6541,0,0,0-24.49945-10.14526h-25.4838a4.96212,4.96212,0,0,0-2.93338,8.9592h.01a4.89041,4.89041,0,0,0,2.91347.95455h21.38812a34.65408,34.65408,0,0,1,24.49815,10.144l0,0A34.65409,34.65409,0,0,1,166.21916,181.452v21.42793a4.90827,4.90827,0,0,0,.9546,2.87372A4.95841,4.95841,0,0,0,176.133,202.83017Z" transform="translate(-76.54971 -56.0309)"/><circle class="cls-1" cx="227.94806" cy="181.32322" r="15.39766" transform="translate(-77.44591 305.48314) rotate(-76.71751)"/><path class="cls-1" d="M186.03934,202.53555v-25.486A34.654,34.654,0,0,1,196.194,152.54074l5.80819-5.806a34.654,34.654,0,0,1,24.49945-10.14527h25.4838a4.96213,4.96213,0,0,1,2.93338,8.95921h-.01a4.89039,4.89039,0,0,1-2.91347.95455H230.60723a34.65407,34.65407,0,0,0-24.49815,10.144l0,0a34.65406,34.65406,0,0,0-10.15591,24.51009v21.42793a4.90819,4.90819,0,0,1-.95461,2.87372A4.9584,4.9584,0,0,1,186.03934,202.53555Z" transform="translate(-76.54971 -56.0309)"/><path class="cls-2" d="M89.943,229.34013l3.73773,1.18526a8.38346,8.38346,0,0,1-2.85862,4.64282,8.99525,8.99525,0,0,1-11.324-1.08083,9.942,9.942,0,0,1-2.44835-7.10442q0-4.76686,2.4614-7.404a8.44044,8.44044,0,0,1,6.47266-2.63734,7.94187,7.94187,0,0,1,5.69137,2.07079,7.5324,7.5324,0,0,1,1.95352,3.51635l-3.816.91182a3.94418,3.94418,0,0,0-4.02422-3.20389,4.34417,4.34417,0,0,0-3.44472,1.5237q-1.322,1.52406-1.32188,4.93593,0,3.62094,1.30231,5.15752a4.229,4.229,0,0,0,3.38615,1.53674,3.86157,3.86157,0,0,0,2.64376-.97682A5.67352,5.67352,0,0,0,89.943,229.34013Z" transform="translate(-76.54971 -56.0309)"/><path class="cls-2" d="M101.54184,226.93079a12.1431,12.1431,0,0,1,.87259-4.89691,8.98723,8.98723,0,0,1,1.77779-2.61777,7.43534,7.43534,0,0,1,2.46791-1.71911,10.48571,10.48571,0,0,1,4.1155-.75543,8.96343,8.96343,0,0,1,6.75263,2.618,11.69825,11.69825,0,0,1,.01967,14.51467,8.89521,8.89521,0,0,1-6.72024,2.61126,8.98565,8.98565,0,0,1-6.77219-2.59811A9.86,9.86,0,0,1,101.54184,226.93079Zm3.97226-.1303a7.15335,7.15335,0,0,0,1.49772,4.91658,5.14895,5.14895,0,0,0,7.5862.01293,7.297,7.297,0,0,0,1.47816-4.98157,7.17871,7.17871,0,0,0-1.43914-4.8967,5.33172,5.33172,0,0,0-7.66434.01935A7.21356,7.21356,0,0,0,105.5141,226.80049Z" transform="translate(-76.54971 -56.0309)"/><path class="cls-2" d="M128.35233,236.35989V217.26717h5.76939l3.46429,13.02369,3.42528-13.02369h5.78243v19.09272h-3.58155V221.33051l-3.78979,15.02938h-3.71175l-3.777-15.02938v15.02938Z" transform="translate(-76.54971 -56.0309)"/><path class="cls-2" d="M155.9051,236.35989V217.26717h5.7694l3.46429,13.02369,3.42527-13.02369h5.78244v19.09272H170.765V221.33051l-3.7899,15.02938H163.2634l-3.777-15.02938v15.02938Z" transform="translate(-76.54971 -56.0309)"/><path class="cls-2" d="M183.48385,217.26717h3.85479v10.34092a21.41733,21.41733,0,0,0,.14334,3.19074,3.09076,3.09076,0,0,0,1.17864,1.88191,4.10521,4.10521,0,0,0,2.546.70979,3.884,3.884,0,0,0,2.47474-.67078,2.65019,2.65019,0,0,0,1.00269-1.64737,21.50183,21.50183,0,0,0,.16922-3.24291v-10.5623h3.8551v10.02825a25.759,25.759,0,0,1-.31267,4.85789,5.37769,5.37769,0,0,1-1.15245,2.3964,5.82355,5.82355,0,0,1-2.24653,1.5563,9.77687,9.77687,0,0,1-3.67273.57948,10.57868,10.57868,0,0,1-4.14811-.63154,5.93294,5.93294,0,0,1-2.23338-1.641,5.25616,5.25616,0,0,1-1.081-2.11644,23.18449,23.18449,0,0,1-.37756-4.84485Z" transform="translate(-76.54971 -56.0309)"/><path class="cls-2" d="M208.14509,236.35989V217.26717H211.896l7.81421,12.75014V217.26717h3.58145v19.09272h-3.868l-7.69684-12.45062v12.45062Z" transform="translate(-76.54971 -56.0309)"/><path class="cls-2" d="M232.58537,236.35989V217.26717h3.8551v19.09272Z" transform="translate(-76.54971 -56.0309)"/><path class="cls-2" d="M249.74527,236.35989V220.49714H244.08v-3.23h15.17252v3.23h-5.65235v15.86275Z" transform="translate(-76.54971 -56.0309)"/><path class="cls-2" d="M272.08857,236.35989v-8.0356L265.095,217.26717h4.519l4.49317,7.55392,4.40209-7.55392h4.441l-7.01976,11.0832v8.00952Z" transform="translate(-76.54971 -56.0309)"/></svg>