<svg id="Calque_1" data-name="Calque 1" xmlns="http://www.w3.org/2000/svg" xmlns:xlink="http://www.w3.org/1999/xlink" viewBox="0 0 270.2217 270.22222"><defs><style>.cls-1{fill:url(#Dégradé_sans_nom_11);}.cls-2{fill:#fff;}</style><linearGradient id="Dégradé_sans_nom_11" x1="135.11085" y1="-0.79472" x2="135.11085" y2="267.83913" gradientUnits="userSpaceOnUse"><stop offset="0" stop-color="#24387a"/><stop offset="0.29698" stop-color="#1b508e"/><stop offset="0.92156" stop-color="#048dc2"/><stop offset="0.99512" stop-color="#0195c8"/></linearGradient></defs><title>logo_community_app</title><path class="cls-1" d="M23.77172,0H246.45051A23.77119,23.77119,0,0,1,270.2217,23.77119V246.451a23.77119,23.77119,0,0,1-23.77119,23.77119H23.77119A23.77119,23.77119,0,0,1,0,246.451V23.77172A23.77172,23.77172,0,0,1,23.77172,0Z"/><path class="cls-2" d="M167.21954,59.92967V95.99012a49.0324,49.0324,0,0,1-14.36787,34.67776l-8.21808,8.21494a49.0324,49.0324,0,0,1-34.66454,14.35466H73.91173A7.021,7.021,0,0,1,69.76126,140.561h.01409a6.91933,6.91933,0,0,1,4.1223-1.3506h30.26229a49.03245,49.03245,0,0,0,34.6627-14.35282l0,0A49.03239,49.03239,0,0,0,153.19238,90.178V59.85934a6.94469,6.94469,0,0,1,1.35068-4.06606A7.0157,7.0157,0,0,1,167.21954,59.92967Z" transform="translate(-39.11701 -25.16103)"/><circle class="cls-2" cx="108.11698" cy="90.12186" r="21.78624" transform="translate(-71.17605 77.6853) rotate(-45)"/><path class="cls-2" d="M181.23617,59.92967V95.99012A49.03244,49.03244,0,0,0,195.604,130.66788l8.21808,8.21494a49.03243,49.03243,0,0,0,34.66454,14.35466H274.544a7.021,7.021,0,0,0,4.15047-12.67648h-.01408a6.91936,6.91936,0,0,0-4.1223-1.3506H244.29578a49.03243,49.03243,0,0,1-34.6627-14.35282l0,0A49.03239,49.03239,0,0,1,195.26334,90.178V59.85934a6.9447,6.9447,0,0,0-1.35069-4.06606A7.0157,7.0157,0,0,0,181.23617,59.92967Z" transform="translate(-39.11701 -25.16103)"/><circle class="cls-2" cx="240.53329" cy="90.12186" r="21.78627" transform="translate(-32.39222 171.31777) rotate(-45)"/><circle class="cls-2" cx="108.11698" cy="230.31099" r="21.78625" transform="translate(-89.13927 5.84011) rotate(-13.28249)"/><path class="cls-2" d="M167.21954,260.61462V224.55417a49.03236,49.03236,0,0,0-14.36787-34.67776l-8.21808-8.21495a49.03239,49.03239,0,0,0-34.66454-14.35465H73.91173a7.021,7.021,0,0,0-4.15047,12.67648h.01409a6.91947,6.91947,0,0,0,4.1223,1.3506h30.26229a49.03244,49.03244,0,0,1,34.6627,14.35281l0,0a49.03243,49.03243,0,0,1,14.36971,34.6796V260.685a6.94466,6.94466,0,0,0,1.35068,4.066A7.0157,7.0157,0,0,0,167.21954,260.61462Z" transform="translate(-39.11701 -25.16103)"/><circle class="cls-2" cx="240.53329" cy="230.18419" r="21.78633" transform="translate(-77.87335 386.23662) rotate(-76.71751)"/><path class="cls-2" d="M181.23617,260.19775V224.1373A49.03241,49.03241,0,0,1,195.604,189.45954l8.21808-8.215a49.03242,49.03242,0,0,1,34.66454-14.35465H274.544a7.021,7.021,0,0,1,4.15047,12.67648h-.01408a6.91949,6.91949,0,0,1-4.1223,1.3506H244.29578a49.03242,49.03242,0,0,0-34.6627,14.35281l0,0a49.03243,49.03243,0,0,0-14.36971,34.6796v30.31862a6.94472,6.94472,0,0,1-1.35069,4.06606A7.0157,7.0157,0,0,1,181.23617,260.19775Z" transform="translate(-39.11701 -25.16103)"/></svg>