<svg id="Calque_1" data-name="Calque 1" xmlns="http://www.w3.org/2000/svg" viewBox="0 0 1795.50253 160.41805"><defs><style>.cls-1,.cls-2{fill:#020304;}.cls-2{stroke:#1d1d1b;stroke-miterlimit:10;}</style></defs><title>logo_community_text</title><path class="cls-1" d="M131.614,39.66847v25.486a34.654,34.654,0,0,1-10.15461,24.50879l-5.80819,5.806a34.65406,34.65406,0,0,1-24.49945,10.14526H65.66791a4.96212,4.96212,0,0,1-2.93338-8.9592h.01a4.89039,4.89039,0,0,1,2.91347-.95455H87.04607a34.654,34.654,0,0,0,24.49815-10.144l0,0a34.654,34.654,0,0,0,10.15591-24.51009V39.61877a4.90819,4.90819,0,0,1,.95461-2.87372A4.9584,4.9584,0,0,1,131.614,39.66847Z" transform="translate(-60.70176 -34.70492)"/><circle class="cls-1" cx="89.84275" cy="61.00705" r="15.3976" transform="translate(-77.52593 46.69205) rotate(-45)"/><path class="cls-1" d="M141.52033,39.66847v25.486a34.65408,34.65408,0,0,0,10.15461,24.50879l5.80819,5.806a34.65406,34.65406,0,0,0,24.49945,10.14526h25.4838a4.96212,4.96212,0,0,0,2.93338-8.9592h-.00995a4.89041,4.89041,0,0,0-2.91347-.95455H186.08822a34.654,34.654,0,0,1-24.49815-10.144l0,0a34.65409,34.65409,0,0,1-10.15591-24.51009V39.61877a4.90825,4.90825,0,0,0-.9546-2.87372A4.95841,4.95841,0,0,0,141.52033,39.66847Z" transform="translate(-60.70176 -34.70492)"/><circle class="cls-1" cx="183.42905" cy="61.00705" r="15.39762" transform="translate(-50.11513 112.86756) rotate(-45)"/><circle class="cls-1" cx="89.84275" cy="160.08686" r="15.39761" transform="translate(-95.07871 -9.78088) rotate(-13.28249)"/><path class="cls-1" d="M131.614,181.50419v-25.486a34.654,34.654,0,0,0-10.15461-24.50878l-5.80819-5.806a34.65407,34.65407,0,0,0-24.49945-10.14527H65.66791a4.96212,4.96212,0,0,0-2.93338,8.9592h.01a4.89032,4.89032,0,0,0,2.91347.95455H87.04607a34.65408,34.65408,0,0,1,24.49815,10.144l0,0A34.65406,34.65406,0,0,1,121.70015,160.126V181.5539a4.90821,4.90821,0,0,0,.95461,2.87372A4.9584,4.9584,0,0,0,131.614,181.50419Z" transform="translate(-60.70176 -34.70492)"/><circle class="cls-1" cx="183.42905" cy="159.99724" r="15.39766" transform="translate(-75.13313 267.05475) rotate(-76.71751)"/><path class="cls-1" d="M141.52033,181.20957v-25.486a34.65408,34.65408,0,0,1,10.15461-24.50879l5.80819-5.806a34.65407,34.65407,0,0,1,24.49945-10.14527h25.4838a4.96212,4.96212,0,0,1,2.93338,8.95921h-.00995a4.89041,4.89041,0,0,1-2.91347.95455H186.08822a34.65407,34.65407,0,0,0-24.49815,10.144l0,0a34.65412,34.65412,0,0,0-10.15591,24.51009v21.42793a4.90825,4.90825,0,0,1-.9546,2.87372A4.95841,4.95841,0,0,1,141.52033,181.20957Z" transform="translate(-60.70176 -34.70492)"/><path class="cls-2" d="M371.734,138.16239l28.73028,9.11059q-6.60618,24.02382-21.97293,35.68731-15.36714,11.66268-38.992,11.66268-29.23188,0-48.05087-19.97053-18.82059-19.97256-18.81938-54.60856,0-36.6408,18.91962-56.91166,18.92-20.26965,49.75254-20.27207,26.92918,0,43.747,15.91726,10.00992,9.41089,15.0159,27.02861l-29.33173,7.00877Q368.129,81.4031,359.87165,74.79571q-8.25894-6.60739-20.07158-6.6078-16.31783,0-26.4781,11.712-10.1615,11.71483-10.16069,37.9403,0,27.83256,10.01033,39.64359,10.00992,11.81183,26.02782,11.81224a29.682,29.682,0,0,0,20.32138-7.50836Q368.02955,154.27932,371.734,138.16239Z" transform="translate(-60.70176 -34.70492)"/><path class="cls-2" d="M460.88923,119.64292q0-22.422,6.70724-37.64039a69.08052,69.08052,0,0,1,13.66507-20.1217,57.15212,57.15212,0,0,1,18.96975-13.214q13.71438-5.80345,31.634-5.80669,32.43435,0,51.90448,20.12332,19.46934,20.12171,19.471,55.95938,0,35.53857-19.31978,55.60854-19.3214,20.072-51.65549,20.07158-32.73506,0-52.05484-19.97053Q460.88924,154.67988,460.88923,119.64292Zm30.533-1.0016q0,24.92841,11.51232,37.79156,11.50991,12.86436,29.23068,12.86315,17.71835,0,29.08112-12.76372,11.36076-12.76493,11.362-38.29114,0-25.22671-11.062-37.63877-11.06124-12.41328-29.381-12.41449-18.3198,0-29.5314,12.56323Q491.421,93.31478,491.42223,118.64132Z" transform="translate(-60.70176 -34.70492)"/><path class="cls-2" d="M666.96959,192.12019V45.36293H711.3164l26.62846,100.10733L764.27341,45.36293h44.447V192.12019H781.19065V76.596L752.06021,192.12019H723.5296L694.49779,76.596V192.12019Z" transform="translate(-60.70176 -34.70492)"/><path class="cls-2" d="M878.75558,192.12019V45.36293h44.34681l26.62846,100.10733L976.0594,45.36293h44.44706V192.12019H992.97664V76.596L963.84539,192.12019h-28.5298L906.28378,76.596V192.12019Z" transform="translate(-60.70176 -34.70492)"/><path class="cls-2" d="M1090.74124,45.36293h29.63v79.486q0,18.92,1.10184,24.52583a23.75714,23.75714,0,0,0,9.05965,14.46538q7.15671,5.45665,19.56958,5.45585,12.61578,0,19.02229-5.15593a20.37113,20.37113,0,0,0,7.70722-12.66267q1.29988-7.50836,1.3007-24.92679V45.36293H1207.765v77.08269q0,26.42716-2.40335,37.34047a41.3359,41.3359,0,0,1-8.85837,18.42,44.76282,44.76282,0,0,1-17.26808,11.9626q-10.81023,4.45263-28.2307,4.45424-21.02265,0-31.88463-4.8544a45.60336,45.60336,0,0,1-17.167-12.61335,40.40174,40.40174,0,0,1-8.30947-16.2681q-2.90415-12.61335-2.90213-37.24023Z" transform="translate(-60.70176 -34.70492)"/><path class="cls-2" d="M1280.30128,192.12019V45.36293h28.83133l60.0644,98.0047V45.36293h27.529V192.12019h-29.73188l-59.16223-95.7024v95.7024Z" transform="translate(-60.70176 -34.70492)"/><path class="cls-2" d="M1468.16289,192.12019V45.36293h29.63245V192.12019Z" transform="translate(-60.70176 -34.70492)"/><path class="cls-2" d="M1600.0635,192.12019V70.1903H1556.517V45.36293H1673.1414V70.1903h-43.44707V192.12019Z" transform="translate(-60.70176 -34.70492)"/><path class="cls-2" d="M1771.80656,192.12019V130.35413l-53.75651-84.9912h34.73583l34.537,58.06363,33.8369-58.06363h34.136L1801.338,130.55461v61.56558Z" transform="translate(-60.70176 -34.70492)"/></svg>